<?xml version="1.0" encoding="UTF-8"?>
<svg xmlns="http://www.w3.org/2000/svg" height="145.409" width="334.105" viewBox="0 0 334.105 145.409">
  <defs>
    <linearGradient id="A" gradientUnits="userSpaceOnUse" x1="14.667" y1="17.859" x2="178.666" y2="17.859">
      <stop offset="0" stop-color="#792351"/>
      <stop offset=".996" stop-color="#ee7300"/>
    </linearGradient>
    <linearGradient id="B" gradientUnits="userSpaceOnUse" x1="129.059" y1="62.932" x2="164.274" y2="62.932">
      <stop offset="0" stop-color="#792351"/>
      <stop offset=".996" stop-color="#ee7300"/>
    </linearGradient>
  </defs>
  <path d="M29.725 46.494c-6.57 0-14.26 2.991-14.26 10.631 0 6.42 5.24 8.67 10.24 10.09 5.04 1.43 10.039 2.01 10.039 5.1 0 2.6-2.85 3.58-5.59 3.58-3.867 0-6.406-1.318-6.609-5.43h-9.109c.05 8.96 7.15 12.49 15.189 12.49 7.69 0 15.24-2.841 15.24-11.711 0-6.32-5.091-8.67-10.141-10.09-5.09-1.43-10.139-1.919-10.139-4.609 0-2.3 2.448-2.99 4.408-2.99 2.79 0 5.781 1.029 5.631 4.209h9.109c-.05-7.89-7.05-11.27-14.01-11.27zm46.051.73v34.99h8.33V68.344c0-2.79 1.37-5.439 4.51-5.439 4.55 0 4.16 3.53 4.16 7.01v12.301h8.33v-16.32c0-3.68-.68-9.85-9.16-9.85-3.04 0-6.47 1.609-7.74 4.209h-.1V47.225zm-15.68 8.82c-2.89 0-5.83.49-8.08 1.76-2.26 1.32-3.821 3.479-3.971 6.809v.012h7.791c.39-2.15 1.858-3.182 4.158-3.182 1.72 0 4.021.74 4.021 2.65 0 1.57-.781 2.06-2.201 2.35-5.78 1.18-14.799.54-14.799 8.82 0 5.24 3.82 7.691 8.67 7.691 3.04 0 6.219-.891 8.379-3.141.1.83.2 1.62.49 2.4h8.381c-.98-2.01-.98-4.361-.98-6.521V64.574c0-7.21-5.829-8.529-11.859-8.529zm77.809 0c-2.89 0-5.83.49-8.08 1.76-2.26 1.32-3.819 3.479-3.969 6.809v.012h7.789c.4-2.15 1.87-3.182 4.17-3.182 1.72 0 4.021.74 4.021 2.65 0 1.57-.791 2.06-2.211 2.35-5.78 1.18-14.801.54-14.801 8.82 0 5.24 3.82 7.691 8.67 7.691 3.04 0 6.221-.891 8.381-3.141.1.83.2 1.62.49 2.4h8.379c-.98-2.01-.979-4.361-.979-6.521V64.574c0-7.21-5.831-8.529-11.861-8.529zm-17.109.25c-3.57 0-6.421 1.719-7.641 4.949h-.1v-4.459h-8.08v25.43h8.33v-12.59c0-3.19 2.15-6.031 6.27-6.031 1.12 0 2.102.2 3.182.49v-7.59c-.64-.15-1.321-.199-1.961-.199zm-56.869 14.01c.19 5.25-1.132 7.5-5.102 7.5-1.86 0-3.479-.84-3.479-2.9 0-2.01 1.57-2.79 3.43-3.23 1.82-.49 3.97-.629 5.15-1.369zm77.809 0c.19 5.25-1.13 7.5-5.1 7.5-1.86 0-3.481-.84-3.471-2.9 0-2.01 1.572-2.79 3.432-3.23 1.81-.49 3.959-.629 5.139-1.369zM14.336 91.934l9.459 34.98h9.26l4.801-24.109h.1l4.801 24.109h9.109l9.641-34.98h-9.111l-4.949 25.58h-.1l-5.141-25.58h-8.57l-5.141 25.58h-.1l-4.949-25.58zm159.729 0v34.98h8.33v-8.129l2.16-2.111 6.221 10.24h10.039l-10.49-15.83 9.311-9.6h-9.65l-7.59 8.48V91.934zm114.811 0v34.99h8.33v-13.869c0-2.79 1.37-5.441 4.51-5.441 4.55 0 4.16 3.532 4.16 7.012v12.299h8.33v-16.32c0-3.68-.68-9.85-9.16-9.85-3.04 0-6.47 1.611-7.74 4.211h-.1V91.934zm31.75 1.861v7.689h-4.211v5.391h4.211v11.309c0 6.91 1.82 8.971 8.92 8.971 1.52 0 3.041-.2 4.561-.25v-6.119c-.74 0-1.47.1-2.16.1-1.81 0-2.99-.441-2.99-2.451v-11.559h5.141v-5.391h-5.141v-7.689zm-222.449 6.949c-7.2 0-11.17 5.689-11.17 12.449 0 7.15 3.48 12.641 11.17 12.641 2.69 0 5.24-1.371 6.76-3.721h.1v2.4c0 3.14-.389 5.93-4.359 5.93-1.28 0-2.301-.149-3.041-.539-.78-.39-1.22-1.069-1.42-2.199h-8.33c.98 6.81 6.56 8.129 12.49 8.129 11.91 0 12.689-7.83 12.689-12h.01v-22.35h-7.988v3.18h-.102c-1.47-2.6-3.769-3.92-6.809-3.92zm-25.83.01c-2.89 0-5.83.49-8.08 1.76-2.26 1.32-3.821 3.481-3.971 6.811v.01h7.791c.39-2.15 1.858-3.18 4.158-3.18 1.72 0 4.021.74 4.021 2.65 0 1.57-.781 2.06-2.201 2.35-5.78 1.18-14.799.54-14.799 8.82 0 5.24 3.82 7.689 8.67 7.689 3.04 0 6.219-.891 8.379-3.141.1.83.2 1.62.49 2.4h8.381c-.98-2.01-.98-4.36-.98-6.52v-11.119c0-7.21-5.829-8.531-11.859-8.531zm56.889 0c-7.5 0-13.719 5.591-13.719 13.381 0 8.52 5.63 13.52 13.91 13.52 5.68 0 11.119-2.55 12.639-8.43h-7.789c-.78 1.86-2.74 2.789-4.75 2.789-3.52 0-5.53-2.299-5.68-5.779h18.67c.39-8.62-4.171-15.48-13.281-15.48zm31.9 0c-3.04 0-6.47 1.611-7.99 4.211h-.1v-3.48h-8.08v25.439h8.33v-13.869c0-2.79 1.37-5.441 4.51-5.441 4.55 0 4.16 3.532 4.16 7.012v12.299h8.33v-16.32c0-3.68-.68-9.85-9.16-9.85zm58.311 0c-3.04 0-6.47 1.611-7.99 4.211h-.1v-3.48h-8.08v25.439h8.33v-13.869c0-2.79 1.37-5.441 4.51-5.441 4.55 0 4.16 3.532 4.16 7.012v12.299h8.33v-16.32c0-3.68-.68-9.85-9.16-9.85zm25.32 0c-7.5 0-13.721 5.591-13.721 13.381 0 8.52 5.64 13.52 13.92 13.52 5.68 0 11.121-2.55 12.641-8.43h-7.791c-.78 1.86-2.74 2.789-4.75 2.789-3.52 0-5.53-2.299-5.68-5.779h18.66c.39-8.62-4.169-15.48-13.279-15.48zm29.049 0c-8.19 0-13.33 5.791-13.33 13.871 0 7.79 5.69 13.029 13.33 13.029 6.76 0 12.061-3.92 12.791-10.73h-8.08c-.39 2.69-1.86 4.361-4.75 4.361-3.53 0-4.951-3.38-4.951-6.66 0-3.53.731-7.5 5.391-7.5 2.11 0 4.02 1.51 4.07 3.67h8.07c-.58-6.71-6.221-10.041-12.541-10.041zm-144.58 5.641c2.79 0 4.801 2.349 4.951 5.189h-10.34c.49-3.08 2.449-5.189 5.389-5.189zm115.541 0c2.79 0 4.799 2.349 4.949 5.189h-10.34c.49-3.08 2.451-5.189 5.391-5.189zm-144.6.73c3.73 0 5 3.18 5 6.42 0 3.19-1.521 5.93-5.051 5.93-3.43 0-4.801-2.99-4.801-5.98 0-3.14 1.182-6.369 4.852-6.369zm-24 7.879c.19 5.25-1.132 7.5-5.102 7.5-1.86 0-3.479-.83-3.479-2.9 0-2.01 1.57-2.789 3.43-3.229 1.82-.49 3.97-.631 5.15-1.371z"/>
  <path d="M14.664 0v34.99h14.799c11.36 0 12.541-6.621 12.541-9.951 0-4.56-2.89-7.939-7.4-8.529v-.1c3.63-.78 6.08-4.17 6.08-7.84 0-6.51-5.341-8.57-11.221-8.57zm101.82 0v14.51h-.1c-1.32-3.63-5.001-5.539-8.771-5.539-7.69 0-11.369 6.209-11.369 13.369s3.679 13.381 11.369 13.381c3.68 0 7.701-2.261 9.021-5.541h.1v4.801h2.84V0zm34.199 0v4.949h3.09V0zM50.244.391V5.34h3.33V.391zm8.67 0V5.34h3.33V.391zM17.994 2.84h11.469c5.2 0 7.891 2.21 7.891 6.57 0 3.28-2.551 5.93-7.891 5.93H17.994zm65.08 6.121c-3.57 0-6.95 2.06-8.08 5.1h-.1V9.699h-3.09V34.99h3.08V20.24c.1-4.95 3.039-8.67 7.939-8.67 5 0 6.42 3.281 6.42 7.641v15.77h3.09v-16.27c0-6.03-2.16-9.75-9.26-9.75zm53.061 0c-3.57 0-6.95 2.06-8.08 5.1h-.102V9.699h-3.09-.01V34.99h3.09V20.24c.1-4.95 3.041-8.67 7.941-8.67 5 0 6.42 3.281 6.42 7.641v15.77h3.09v-16.27c0-6.03-2.16-9.75-9.26-9.75zm32.389 0c-4.46 0-9.51 1.96-9.51 7.1 0 4.31 3.041 5.68 7.061 6.76l3.969.879c2.8.69 5.541 1.671 5.541 4.611 0 3.53-4.02 4.799-6.91 4.799-4.12 0-7.199-2.16-7.449-6.32h-3.09c.49 6.18 4.509 8.922 10.389 8.922 4.7 0 10.141-2.102 10.141-7.592 0-4.41-3.671-6.47-7.201-7.01l-4.119-.93c-2.1-.54-5.24-1.52-5.24-4.26 0-3.28 3.24-4.359 5.98-4.359 3.517 0 6.455 1.716 6.609 5.529h3.09c-.2-5.48-4.21-8.129-9.26-8.129zm-122.549.738v16.41c0 5.88 2.499 9.602 8.869 9.602 3.77 0 7.101-1.911 8.721-5.291h.1v4.561h2.84V9.699h-3.09V22.98c0 5.14-2.3 10.139-7.59 10.139-4.9 0-6.61-2.399-6.76-6.959V9.699zm104.709 0V34.98h3.09V9.699zm-43.07 1.861c6.57 0 8.871 5.539 8.871 10.779s-2.301 10.779-8.871 10.779c-5.88 0-8.279-5.539-8.279-10.779s2.399-10.779 8.279-10.779zM17.994 18.18h11.469c5.83 0 9.211 2.3 9.211 6.76 0 5.58-4.261 7.251-9.211 7.201H17.994z" fill="url(#A)"/>
  <path transform="matrix(0 1 1 0 -45.32 -18.8608)" stroke-miterlimit="10" d="M 129.06 46.52 L 163.07 46.52 L 163.07 80.54" fill="none" stroke="url(#B)" stroke-width="2.4"/>
</svg>