<?xml version="1.0" encoding="UTF-8" standalone="no"?>
<!-- Created with Inkscape (http://www.inkscape.org/) -->
<svg
        xmlns:svg="http://www.w3.org/2000/svg"
        xmlns="http://www.w3.org/2000/svg"
        version="1.0"
        width="604"
        height="154"
        viewBox="0 0 604 154" id="svg2"
        xml:space="preserve"><defs
     id="defs5" /><g
        transform="matrix(1.25,0,0,-1.25,-415.33375,187.45705)"
        id="g11"><path
       d="M 459.12912,36.02757 C 459.12912,34.544512 458.80159,33.202947 458.15439,32.000254 C 457.51243,30.797562 456.65561,29.859515 455.58393,29.196593 C 454.83978,28.73805 454.00654,28.405279 453.08684,28.2009 C 452.17499,27.996521 450.9723,27.894332 449.47352,27.894332 L 445.35974,27.896952 L 445.35974,44.192251 L 449.4316,44.192251 C 451.02208,44.192251 452.28504,44.07434 453.21785,43.841139 C 454.15852,43.615798 454.95507,43.303989 455.60489,42.900471 C 456.71326,42.208726 457.57794,41.28378 458.19893,40.133493 C 458.81993,38.977965 459.12912,37.610198 459.12912,36.02757 M 456.86523,36.059013 C 456.86523,37.337692 456.63989,38.414613 456.19445,39.289774 C 455.74901,40.164936 455.08608,40.85406 454.20306,41.357147 C 453.5611,41.721361 452.87722,41.972904 452.15665,42.111777 C 451.43346,42.258511 450.56878,42.331878 449.56261,42.331878 L 447.52668,42.331878 L 447.52668,29.754705 L 449.56261,29.754705 C 450.60547,29.754705 451.51469,29.830692 452.28766,29.985287 C 453.0685,30.139881 453.78382,30.422867 454.43364,30.839486 C 455.2433,31.355674 455.84857,32.039558 456.24947,32.885897 C 456.65823,33.732236 456.86523,34.788194 456.86523,36.059013"
       id="path505"
       style="fill:#f89d65;fill-opacity:1;fill-rule:evenodd;stroke:none" /><path
        d="M 480.0937,27.896952 L 469.35593,27.896952 L 469.35593,44.192251 L 480.0937,44.192251 L 480.0937,42.266372 L 471.5255,42.266372 L 471.5255,37.798855 L 480.0937,37.798855 L 480.0937,35.875596 L 471.5255,35.875596 L 471.5255,29.822831 L 480.0937,29.822831 L 480.0937,27.896952 z"
        id="path507"
        style="fill:#f89d65;fill-opacity:1;fill-rule:evenodd;stroke:none" /><path
        d="M 502.52561,34.439702 C 502.52561,33.260592 502.39722,32.225595 502.13257,31.342573 C 501.87579,30.464791 501.45393,29.736363 500.86437,29.154669 C 500.30102,28.599177 499.64334,28.193039 498.89133,27.936255 C 498.13932,27.684712 497.26416,27.55632 496.26584,27.55632 C 495.24395,27.55632 494.35307,27.689952 493.59319,27.959838 C 492.83594,28.229723 492.1966,28.628 491.6778,29.154669 C 491.08824,29.752085 490.66114,30.472652 490.39912,31.318991 C 490.14233,32.16795 490.01656,33.208187 490.01656,34.439702 L 490.01656,44.192251 L 492.1835,44.192251 L 492.1835,34.329652 C 492.1835,33.44925 492.24115,32.749644 492.35644,32.238697 C 492.47959,31.730369 492.68659,31.263966 492.9722,30.849967 C 493.29187,30.375703 493.72421,30.01935 494.27446,29.778287 C 494.82733,29.537225 495.49287,29.416693 496.26584,29.416693 C 497.04406,29.416693 497.7096,29.531984 498.25723,29.765186 C 498.80486,30.008869 499.24244,30.367842 499.56997,30.849967 C 499.85558,31.263966 500.05472,31.74085 500.17263,32.27276 C 500.29578,32.81253 500.35867,33.480692 500.35867,34.277247 L 500.35867,44.192251 L 502.52561,44.192251 L 502.52561,34.439702 z"
        id="path509"
        style="fill:#f89d65;fill-opacity:1;fill-rule:evenodd;stroke:none" /><path
        d="M 525.01254,42.266372 L 519.19036,42.266372 L 519.19036,27.896952 L 517.0208,27.896952 L 517.0208,42.266372 L 511.19862,42.266372 L 511.19862,44.192251 L 525.01254,44.192251 L 525.01254,42.266372 z"
        id="path511"
        style="fill:#f89d65;fill-opacity:1;fill-rule:evenodd;stroke:none" /><path
        d="M 545.63387,32.547885 C 545.63387,31.911166 545.48451,31.282307 545.18843,30.66393 C 544.89496,30.045552 544.48096,29.518883 543.94905,29.086543 C 543.36474,28.620139 542.68609,28.258545 541.90264,27.993901 C 541.12967,27.731876 540.19686,27.598244 539.1016,27.598244 C 537.92511,27.598244 536.86915,27.708294 535.92586,27.928395 C 534.99305,28.145875 534.04191,28.470785 533.0698,28.903126 L 533.0698,31.617699 L 533.22439,31.617699 C 534.04715,30.931195 535.00092,30.401905 536.08046,30.029831 C 537.16,29.655136 538.17403,29.471719 539.12256,29.471719 C 540.46413,29.471719 541.50698,29.720642 542.25375,30.226349 C 543.00314,30.729436 543.38046,31.402839 543.38046,32.238697 C 543.38046,32.961884 543.20228,33.496414 542.84331,33.837046 C 542.49481,34.182918 541.95766,34.447563 541.23448,34.63622 C 540.68685,34.782954 540.09205,34.903485 539.45271,34.997814 C 538.81599,35.094763 538.13997,35.212674 537.42726,35.359408 C 535.98089,35.668596 534.90921,36.187405 534.20698,36.923694 C 533.51524,37.670463 533.16936,38.634713 533.16936,39.826924 C 533.16936,41.189451 533.74582,42.305675 534.89873,43.175597 C 536.04901,44.050758 537.51373,44.488339 539.28764,44.488339 C 540.43268,44.488339 541.4834,44.378289 542.43979,44.160808 C 543.39618,43.940708 544.2399,43.670823 544.97881,43.351153 L 544.97881,40.791174 L 544.82683,40.791174 C 544.20583,41.312603 543.3857,41.747563 542.37428,42.090815 C 541.36549,42.441928 540.33311,42.617484 539.27453,42.617484 C 538.11377,42.617484 537.18096,42.376422 536.47349,41.894297 C 535.77389,41.412172 535.42277,40.793794 535.42277,40.033924 C 535.42277,39.35528 535.59833,38.82075 535.94944,38.435575 C 536.29794,38.047778 536.91631,37.754311 537.79934,37.549932 C 538.26574,37.447742 538.92866,37.321971 539.79072,37.175237 C 540.65278,37.028503 541.38121,36.88177 541.97863,36.729795 C 543.18918,36.407505 544.10364,35.92276 544.71678,35.27294 C 545.32992,34.620499 545.63387,33.713894 545.63387,32.547885"
        id="path513"
        style="fill:#f89d65;fill-opacity:1;fill-rule:evenodd;stroke:none" /><path
        d="M 568.42999,29.078682 C 568.02648,28.903126 567.66226,28.73805 567.33473,28.583456 C 567.01506,28.431482 566.59058,28.269026 566.06391,28.103951 C 565.61847,27.962458 565.13373,27.847167 564.60968,27.752838 C 564.08825,27.650649 563.51703,27.598244 562.8908,27.598244 C 561.70907,27.598244 560.63215,27.763319 559.66004,28.09085 C 558.69841,28.426241 557.85993,28.95029 557.1446,29.655136 C 556.44238,30.3495 555.89474,31.229903 555.50171,32.296342 C 555.10867,33.368022 554.91215,34.610018 554.91215,36.02757 C 554.91215,37.369135 555.10081,38.569207 555.48075,39.627786 C 555.86068,40.686364 556.40569,41.579868 557.12102,42.310916 C 557.81538,43.018382 558.64862,43.558152 559.62859,43.930227 C 560.6138,44.302302 561.70383,44.488339 562.90128,44.488339 C 563.77644,44.488339 564.64898,44.380909 565.51628,44.171289 C 566.39144,43.95905 567.36093,43.586975 568.42999,43.055065 L 568.42999,40.481985 L 568.26492,40.481985 C 567.36879,41.231375 566.47529,41.781627 565.59227,42.124879 C 564.70925,42.468131 563.76596,42.638446 562.75716,42.638446 C 561.93441,42.638446 561.18764,42.504814 560.52734,42.232309 C 559.86965,41.970284 559.28272,41.558906 558.76391,40.995553 C 558.26082,40.447922 557.86779,39.756178 557.58218,38.917699 C 557.30444,38.084462 557.16556,37.120212 557.16556,36.02757 C 557.16556,34.882523 557.31754,33.894691 557.62673,33.071934 C 557.93853,32.249178 558.33943,31.575775 558.82942,31.059587 C 559.34037,30.517196 559.93516,30.118919 560.6138,29.856895 C 561.30031,29.59749 562.0235,29.471719 562.78075,29.471719 C 563.8236,29.471719 564.80095,29.647275 565.71542,30.008869 C 566.62726,30.362602 567.47884,30.902372 568.27278,31.615078 L 568.42999,31.617699 L 568.42999,29.078682 z"
        id="path515"
        style="fill:#f89d65;fill-opacity:1;fill-rule:evenodd;stroke:none" /><path
        d="M 590.68635,27.896952 L 588.51941,27.896952 L 588.51941,35.875596 L 580.38617,35.875596 L 580.38617,27.896952 L 578.21923,27.896952 L 578.21923,44.192251 L 580.38617,44.192251 L 580.38617,37.798855 L 588.51941,37.798855 L 588.51941,44.192251 L 590.68635,44.192251 L 590.68635,27.896952 z"
        id="path517"
        style="fill:#f89d65;fill-opacity:1;fill-rule:evenodd;stroke:none" /><path
        d="M 612.09899,27.896952 L 601.78832,27.896952 L 601.78832,44.192251 L 603.95527,44.192251 L 603.95527,29.822831 L 612.09899,29.822831 L 612.09899,27.896952 z"
        id="path519"
        style="fill:#f89d65;fill-opacity:1;fill-rule:evenodd;stroke:none" /><path
        d="M 633.84177,27.896952 L 631.53072,27.896952 L 629.93499,32.437835 L 622.88391,32.437835 L 621.28818,27.896952 L 619.08718,27.896952 L 625.02203,44.192251 L 627.90954,44.192251 L 633.84177,27.896952 z M 629.26683,34.298209 L 626.41076,42.297815 L 623.54421,34.298209 L 629.26683,34.298209 z"
        id="path521"
        style="fill:#f89d65;fill-opacity:1;fill-rule:evenodd;stroke:none" /><path
        d="M 655.47451,27.896952 L 652.794,27.896952 L 645.0669,42.475991 L 645.0669,27.896952 L 643.04145,27.896952 L 643.04145,44.192251 L 646.4006,44.192251 L 653.44906,30.88403 L 653.44906,44.192251 L 655.47451,44.192251 L 655.47451,27.896952 z"
        id="path523"
        style="fill:#f89d65;fill-opacity:1;fill-rule:evenodd;stroke:none" /><path
        d="M 680.30395,36.02757 C 680.30395,34.544512 679.97641,33.202947 679.32921,32.000254 C 678.68725,30.797562 677.83043,29.859515 676.75613,29.196593 C 676.01199,28.73805 675.18137,28.405279 674.26166,28.2009 C 673.34982,27.996521 672.1445,27.894332 670.64835,27.894332 L 666.53456,27.896952 L 666.53456,44.192251 L 670.60642,44.192251 C 672.19691,44.192251 673.45987,44.07434 674.39267,43.841139 C 675.33596,43.615798 676.1299,43.303989 676.77972,42.900471 C 677.88808,42.208726 678.75276,41.28378 679.37376,40.133493 C 679.99476,38.977965 680.30395,37.610198 680.30395,36.02757 M 678.03743,36.059013 C 678.03743,37.337692 677.81471,38.414613 677.36927,39.289774 C 676.92383,40.164936 676.26091,40.85406 675.38051,41.357147 C 674.73593,41.721361 674.05204,41.972904 673.33148,42.111777 C 672.60829,42.258511 671.74361,42.331878 670.73743,42.331878 L 668.7015,42.331878 L 668.7015,29.754705 L 670.73743,29.754705 C 671.78029,29.754705 672.68952,29.830692 673.46249,29.985287 C 674.24332,30.139881 674.95865,30.422867 675.60847,30.839486 C 676.41812,31.355674 677.0234,32.039558 677.4243,32.885897 C 677.83568,33.732236 678.03743,34.788194 678.03743,36.059013"
        id="path525"
        style="fill:#f89d65;fill-opacity:1;fill-rule:evenodd;stroke:none" /><path
        d="M 702.37426,32.547885 C 702.37426,31.911166 702.22491,31.282307 701.9262,30.66393 C 701.63273,30.045552 701.22136,29.518883 700.68945,29.086543 C 700.10513,28.620139 699.42387,28.258545 698.64042,27.993901 C 697.86744,27.731876 696.93464,27.598244 695.83937,27.598244 C 694.6655,27.598244 693.60693,27.708294 692.66626,27.928395 C 691.73345,28.145875 690.77968,28.470785 689.81019,28.903126 L 689.81019,31.617699 L 689.96479,31.617699 C 690.78754,30.931195 691.73869,30.401905 692.81823,30.029831 C 693.89777,29.655136 694.91181,29.471719 695.86034,29.471719 C 697.20452,29.471719 698.24738,29.720642 698.99153,30.226349 C 699.74354,30.729436 700.11823,31.402839 700.11823,32.238697 C 700.11823,32.961884 699.94006,33.496414 699.5837,33.837046 C 699.23259,34.182918 698.69544,34.447563 697.97225,34.63622 C 697.42724,34.782954 696.83245,34.903485 696.19049,34.997814 C 695.55639,35.094763 694.88036,35.212674 694.16504,35.359408 C 692.72128,35.668596 691.64698,36.187405 690.94738,36.923694 C 690.25563,37.670463 689.90714,38.634713 689.90714,39.826924 C 689.90714,41.189451 690.48359,42.305675 691.6365,43.175597 C 692.78941,44.050758 694.25413,44.488339 696.02541,44.488339 C 697.17308,44.488339 698.22118,44.378289 699.18019,44.160808 C 700.13395,43.940708 700.98291,43.670823 701.71658,43.351153 L 701.71658,40.791174 L 701.56461,40.791174 C 700.94361,41.312603 700.12609,41.747563 699.11206,42.090815 C 698.10589,42.441928 697.07089,42.617484 696.01493,42.617484 C 694.85416,42.617484 693.92136,42.376422 693.21389,41.894297 C 692.51428,41.412172 692.16055,40.793794 692.16055,40.033924 C 692.16317,39.35528 692.33611,38.82075 692.68722,38.435575 C 693.03833,38.047778 693.65409,37.754311 694.53711,37.549932 C 695.00614,37.447742 695.66906,37.321971 696.5285,37.175237 C 697.39056,37.028503 698.12161,36.88177 698.7164,36.729795 C 699.92958,36.407505 700.84142,35.92276 701.45456,35.27294 C 702.06769,34.620499 702.37426,33.713894 702.37426,32.547885"
        id="path527"
        style="fill:#f89d65;fill-opacity:1;fill-rule:evenodd;stroke:none" /><path
        d="M 687.19781,93.159378 C 687.19781,94.04502 687.04845,94.867777 686.75499,95.632888 C 686.4589,96.395379 685.99774,97.021618 685.37412,97.508983 C 684.62735,98.080196 683.74695,98.491575 682.73291,98.743118 C 681.71626,98.994662 680.39565,99.120434 678.76586,99.120434 L 673.94985,99.120434 L 670.30509,83.31774 L 674.92982,83.31774 C 677.0103,83.31774 678.73704,83.509018 680.11529,83.891573 C 681.49092,84.274129 682.68313,84.882026 683.6893,85.715263 C 684.86579,86.703096 685.74357,87.814079 686.32527,89.045594 C 686.90696,90.277109 687.19781,91.650117 687.19781,93.159378 M 687.43625,83.047855 C 685.84314,81.729872 684.06138,80.74466 682.09357,80.092219 C 680.12315,79.442398 677.75445,79.114868 674.97961,79.114868 L 669.3356,79.114868 L 665.97907,64.562031 L 660.76478,64.562031 L 669.71554,103.35737 L 679.91615,103.35737 C 682.27437,103.35737 684.22645,103.15037 685.76978,102.73375 C 687.3131,102.31713 688.5813,101.7171 689.56913,100.93888 C 690.59365,100.15543 691.37186,99.204281 691.91163,98.085437 C 692.44878,96.963972 692.71866,95.614547 692.71866,94.037159 C 692.71866,91.917382 692.2575,89.907654 691.34041,88.007977 C 690.42071,86.1083 689.12107,84.452306 687.43625,83.047855"
        id="path529"
        style="fill:#827164;fill-opacity:1;fill-rule:nonzero;stroke:none" /><path
        d="M 713.86666,79.914042 C 711.18877,79.809233 708.8122,79.607474 706.73435,79.303526 C 704.65388,78.999577 702.93762,78.559376 701.58033,77.988163 C 700.17326,77.414329 699.1042,76.636117 698.37315,75.656145 C 697.6421,74.673554 697.27789,73.45514 697.27789,71.995664 C 697.27789,70.745808 697.70237,69.789418 698.55657,69.129117 C 699.40815,68.471435 700.72875,68.141285 702.521,68.141285 C 704.10362,68.141285 705.7177,68.492397 707.36059,69.194623 C 709.0061,69.899469 710.53894,70.745808 711.96698,71.73626 L 713.86666,79.914042 z M 711.03679,67.66178 C 710.56777,67.384034 709.92843,66.988377 709.11877,66.477429 C 708.31174,65.969102 707.48898,65.531521 706.65574,65.167307 C 705.7701,64.76903 704.77703,64.433639 703.68177,64.166374 C 702.5865,63.899109 701.32617,63.765477 699.90075,63.765477 C 697.5897,63.765477 695.71098,64.436259 694.26723,65.783065 C 692.82347,67.12725 692.10291,68.885434 692.10291,71.057617 C 692.10291,73.368672 692.61123,75.315514 693.62527,76.906002 C 694.64192,78.49387 696.14856,79.793511 698.14519,80.799685 C 700.10775,81.790137 702.47383,82.505464 705.24343,82.948285 C 708.01303,83.393727 711.1678,83.666232 714.71037,83.771042 C 714.82566,84.253167 714.92261,84.675026 715.00122,85.028759 C 715.07983,85.382492 715.11913,85.751947 715.11913,86.134503 C 715.11913,86.96774 714.95144,87.646384 714.62129,88.170432 C 714.29113,88.689241 713.81949,89.10848 713.21159,89.422909 C 712.6037,89.734718 711.89361,89.946958 711.08396,90.059629 C 710.2743,90.172299 709.3808,90.229944 708.40607,90.229944 C 706.92563,90.229944 705.23557,89.988882 703.34113,89.509377 C 701.44408,89.027252 699.90337,88.547748 698.71902,88.076104 L 698.457,88.076104 L 699.42125,92.981201 C 700.41432,93.240605 701.86594,93.536693 703.77871,93.866844 C 705.68887,94.196994 707.52566,94.36207 709.28123,94.36207 C 712.89716,94.36207 715.60912,93.798717 717.41709,92.669392 C 719.22505,91.540067 720.13166,89.75306 720.13166,87.303132 C 720.13166,86.834108 720.09236,86.336261 720.01375,85.806972 C 719.93514,85.277683 719.84605,84.777216 719.74124,84.308192 L 715.18202,64.562031 L 710.32933,64.562031 L 711.03679,67.66178 z"
        id="path531"
        style="fill:#827164;fill-opacity:1;fill-rule:nonzero;stroke:none" /><path
        d="M 748.10015,88.526786 L 747.84074,88.526786 C 747.14638,88.699722 746.49918,88.822873 745.90438,88.89886 C 745.30435,88.974847 744.58116,89.014151 743.7322,89.014151 C 742.10241,89.014151 740.48572,88.644697 738.88213,87.905788 C 737.27854,87.166879 735.74046,86.283856 734.26526,85.25148 L 729.53572,64.562031 L 724.59394,64.562031 L 731.24412,93.667705 L 736.18852,93.667705 L 735.20593,89.367884 C 737.51436,90.984575 739.47168,92.103419 741.07789,92.729658 C 742.68672,93.355896 744.22743,93.667705 745.70262,93.667705 C 746.55158,93.667705 747.16734,93.646743 747.5499,93.602199 C 747.93245,93.560275 748.48794,93.476427 749.21899,93.355896 L 748.10015,88.526786 z"
        id="path533"
        style="fill:#827164;fill-opacity:1;fill-rule:nonzero;stroke:none" /><path
        d="M 769.20622,93.667705 L 768.31795,89.708516 L 758.17237,89.708516 L 755.07524,76.266662 C 754.9023,75.588019 754.74771,74.809806 754.60883,73.929404 C 754.46996,73.051623 754.39922,72.352017 754.39922,71.830589 C 754.39922,70.55977 754.72151,69.616482 755.36346,68.998105 C 756.00542,68.379727 757.1924,68.070538 758.92962,68.070538 C 759.6397,68.070538 760.48604,68.19369 761.46863,68.434752 C 762.44599,68.678435 763.11153,68.869713 763.4574,69.008586 L 763.71942,69.008586 L 762.80496,64.805714 C 761.83547,64.562031 760.79785,64.362892 759.69473,64.208298 C 758.59161,64.051083 757.61425,63.972476 756.76268,63.972476 C 754.36777,63.972476 752.51264,64.499145 751.20252,65.552483 C 749.88977,66.603201 749.23471,68.267056 749.23471,70.544049 C 749.23471,71.09954 749.27402,71.652412 749.35262,72.200043 C 749.43123,72.745054 749.54128,73.368672 749.67753,74.065657 L 753.28561,89.708516 L 749.99196,89.708516 L 750.88023,93.667705 L 754.20008,93.667705 L 756.1312,102.03677 L 761.03105,102.03677 L 759.08945,93.667705 L 769.20622,93.667705 z"
        id="path535"
        style="fill:#827164;fill-opacity:1;fill-rule:nonzero;stroke:none" /><path
        d="M 791.93684,82.277503 C 792.0233,82.78059 792.08619,83.205069 792.12025,83.553562 C 792.15694,83.899434 792.17266,84.28199 792.17266,84.698609 C 792.17266,86.556362 791.66433,88.007977 790.64768,89.048214 C 789.6284,90.091071 788.00385,90.60988 785.76092,90.60988 C 783.29265,90.60988 781.10475,89.847389 779.19459,88.319786 C 777.28181,86.792184 775.98741,84.777216 775.31139,82.277503 L 791.93684,82.277503 z M 782.16594,63.867666 C 778.13863,63.867666 774.97861,64.816195 772.68852,66.710631 C 770.39581,68.602448 769.25076,71.374666 769.25076,75.024667 C 769.25076,80.359484 770.93296,84.934431 774.29997,88.746886 C 777.66698,92.561962 781.83055,94.46688 786.79592,94.46688 C 790.09218,94.46688 792.6181,93.646743 794.37104,92.00385 C 796.12399,90.358336 796.99915,88.052521 796.99915,85.081164 C 796.99915,84.557115 796.92578,83.731738 796.77905,82.602413 C 796.63231,81.473088 796.39387,80.160345 796.06372,78.664186 L 774.60654,78.664186 C 774.50173,78.161099 774.42836,77.665873 774.38644,77.181128 C 774.34189,76.696382 774.32093,76.24308 774.32093,75.826461 C 774.32093,73.381773 775.0677,71.458514 776.56124,70.061924 C 778.06002,68.665334 780.1798,67.968349 782.92844,67.968349 C 784.83859,67.968349 786.80902,68.340423 788.83447,69.087193 C 790.86254,69.833962 792.56045,70.675061 793.93608,71.613108 L 794.22169,71.613108 L 793.15525,66.320215 C 792.28533,66.005785 791.5045,65.720179 790.81013,65.460775 C 790.11577,65.19875 789.23274,64.939346 788.15582,64.677322 C 787.07628,64.417917 786.12251,64.216159 785.28928,64.077286 C 784.45604,63.938413 783.4158,63.867666 782.16594,63.867666"
        id="path537"
        style="fill:#827164;fill-opacity:1;fill-rule:nonzero;stroke:none" /><path
        d="M 814.505,103.60105 L 813.32589,98.530879 L 807.76835,98.530879 L 808.94746,103.60105 L 814.505,103.60105 z M 811.83759,93.667705 L 805.11404,64.562031 L 800.22991,64.562031 L 806.95346,93.667705 L 811.83759,93.667705 z"
        id="path539"
        style="fill:#827164;fill-opacity:1;fill-rule:nonzero;stroke:none" /><path
        d="M 466.49725,114.42528 C 468.84237,120.49377 487.18146,149.17496 537.37748,149.17496 C 588.12375,149.17496 609.08308,119.66577 610.73908,113.87241 C 608.53283,113.73354 604.11772,113.87241 604.11772,113.87241 C 604.11772,113.87241 586.88175,144.2096 537.37748,144.2096 C 487.0452,144.2096 474.30034,114.42528 473.39111,114.42528 L 466.49725,114.42528 z"
        id="path541"
        style="fill:#f46622;fill-opacity:1;fill-rule:evenodd;stroke:none" /><path
        d="M 658.69479,94.36469 C 658.69479,93.672946 658.65025,92.926176 658.55854,92.121761 C 658.46683,91.317346 658.31748,90.478868 658.10786,89.606326 L 652.31712,64.407436 L 639.76877,64.407436 L 644.18388,83.608587 C 644.50355,85.03138 644.75509,86.249793 644.94113,87.261208 C 645.12454,88.272622 645.21363,89.21329 645.21625,90.088451 C 645.21625,91.581991 644.83894,92.672012 644.07645,93.363757 C 643.3192,94.052881 641.92785,94.396133 639.90764,94.396133 C 638.91981,94.396133 637.78,94.178653 636.49346,93.743692 C 635.20692,93.329694 633.75792,92.695594 632.15172,91.844015 L 625.84217,64.407436 L 613.36194,64.407436 L 622.29174,103.12155 L 634.77196,103.12155 L 633.77103,98.845308 C 636.32052,100.52226 638.64206,101.83239 640.73302,102.77305 C 642.85017,103.71634 645.16909,104.18799 647.69762,104.18799 C 651.16945,104.18799 653.8683,103.34951 655.79942,101.67255 C 657.73054,99.99297 658.69479,97.558768 658.69479,94.36469"
        id="path543"
        style="fill:#f46622;fill-opacity:1;fill-rule:evenodd;stroke:none" /><path
        d="M 658.69479,94.36469 C 658.69479,93.672946 658.65025,92.926176 658.55854,92.121761 C 658.46683,91.317346 658.31748,90.478868 658.10786,89.606326 L 652.31712,64.407436 L 639.76877,64.407436 L 644.18388,83.608587 C 644.50355,85.03138 644.75509,86.249793 644.94113,87.261208 C 645.12454,88.272622 645.21625,89.21329 645.21625,90.088451 C 645.21625,91.581991 644.83894,92.672012 644.07645,93.363757 C 643.3192,94.052881 641.92785,94.396133 639.90764,94.396133 C 638.91981,94.396133 637.78,94.178653 636.49346,93.743692 C 635.20692,93.329694 633.75792,92.695594 632.15172,91.844015 L 625.84217,64.407436 L 613.36194,64.407436 L 622.29174,103.12155 L 634.77196,103.12155 L 633.77103,98.845308 C 636.32052,100.52226 638.64206,101.83239 640.73302,102.77305 C 642.85017,103.71634 645.16909,104.18799 647.69762,104.18799 C 651.16945,104.18799 653.8683,103.34951 655.79942,101.67255 C 657.73054,99.99297 658.69479,97.558768 658.69479,94.36469"
        id="path545"
        style="fill:#f46622;fill-opacity:1;fill-rule:evenodd;stroke:none" /><path
        d="M 598.77504,89.134682 C 598.84579,89.548681 598.88771,89.928616 598.91392,90.271868 C 598.95846,90.617741 598.97942,90.971474 598.98204,91.343548 C 598.98204,93.156757 598.41869,94.545487 597.29198,95.514977 C 596.16528,96.479227 594.54597,96.961352 592.43405,96.961352 C 589.88455,96.961352 587.73333,96.272228 585.98563,94.891359 C 584.26413,93.513111 582.95401,91.592472 582.05526,89.134682 L 598.77504,89.134682 z M 589.29762,63.762856 C 582.69984,63.762856 577.60871,65.222332 574.02159,68.141285 C 570.4371,71.057617 568.64485,75.092793 568.64485,80.238953 C 568.64485,83.757941 569.23179,86.986082 570.40304,89.928616 C 571.57429,92.868531 573.26434,95.454712 575.47059,97.68454 C 577.58513,99.84624 580.22895,101.55726 583.39945,102.82284 C 586.57256,104.0858 590.05225,104.71728 593.84636,104.71728 C 599.61614,104.71728 603.95789,103.54603 606.87946,101.20091 C 609.81937,98.879371 611.28933,95.444231 611.28933,90.892866 C 611.28933,89.32858 611.12949,87.800978 610.8072,86.307439 C 610.5085,84.813899 610.10498,83.330841 609.60189,81.860884 L 580.84995,81.860884 L 580.84995,81.449506 L 580.84995,81.06695 C 580.84995,78.378579 581.79062,76.277143 583.67457,74.760022 C 585.56115,73.24028 588.44604,72.48565 592.32924,72.48565 C 595.04119,72.48565 597.60117,72.944193 600.01704,73.863898 C 602.45387,74.780984 604.56578,75.802879 606.36065,76.932204 L 607.7389,76.932204 L 605.42784,66.967415 C 603.01722,65.911457 600.47296,65.117523 597.81079,64.588233 C 595.14338,64.037982 592.30566,63.762856 589.29762,63.762856"
        id="path547"
        style="fill:#f46622;fill-opacity:1;fill-rule:evenodd;stroke:none" /><path
        d="M 556.47906,64.103488 L 543.99883,64.103488 C 543.99883,64.103488 550.20095,90.410741 550.6595,92.742759 C 551.84647,97.181453 552.3941,100.34671 558.46258,100.34409 C 565.23067,100.33885 563.52228,93.861603 563.30217,92.616987 C 562.68118,89.85787 556.47906,64.103488 556.47906,64.103488"
        id="path549"
        style="fill:#f46622;fill-opacity:1;fill-rule:evenodd;stroke:none" /><path
        d="M 553.09632,111.64782 C 553.09632,115.60701 556.49216,118.81943 560.68193,118.81943 C 564.8717,118.81943 568.26492,115.60701 568.26492,111.64782 C 568.26492,107.68601 564.86908,104.47621 560.68193,104.47621 C 556.49216,104.47621 553.09632,107.68601 553.09632,111.64782"
        id="path551"
        style="fill:#f46622;fill-opacity:1;fill-rule:evenodd;stroke:none" /><path
        d="M 506.48742,111.64782 C 506.48742,115.60701 509.88325,118.81943 514.07302,118.81943 C 518.26279,118.81943 521.65601,115.60701 521.65601,111.64782 C 521.65601,107.68601 518.26279,104.47621 514.07302,104.47621 C 509.88325,104.47621 506.48742,107.68601 506.48742,111.64782"
        id="path553"
        style="fill:#f46622;fill-opacity:1;fill-rule:evenodd;stroke:none" /><path
        d="M 510.48853,64.242361 L 498.00831,64.242361 C 498.00831,64.242361 504.00605,89.721617 504.66897,92.879011 C 505.85594,97.317705 506.40619,100.48296 512.47468,100.48296 C 519.24539,100.47772 517.37977,94.134109 517.03652,92.892113 C 516.62514,90.685867 510.48853,64.242361 510.48853,64.242361"
        id="path555"
        style="fill:#f46622;fill-opacity:1;fill-rule:evenodd;stroke:none" /><path
        d="M 532.98071,64.347171 L 520.50048,64.347171 C 520.50048,64.347171 533.74844,122.27029 534.26201,124.18045 C 535.44898,128.61652 535.99923,131.77916 542.06509,131.77916 C 548.68383,131.77916 547.12479,125.29929 546.90207,124.05468 C 546.52737,121.94014 532.98071,64.347171 532.98071,64.347171"
        id="path557"
        style="fill:#f46622;fill-opacity:1;fill-rule:evenodd;stroke:none" /><path
        d="M 493.47266,94.873017 C 493.47266,94.160311 493.4124,93.389959 493.29973,92.561962 C 493.20802,91.736585 493.05866,90.874525 492.85167,89.975781 L 487.02424,64.776891 L 474.47851,64.776891 L 478.95651,84.116914 C 479.25784,85.450619 479.51986,86.724058 479.75044,87.945091 C 480.00199,89.160885 480.12776,90.148717 480.13038,90.908588 C 480.13038,92.239672 479.76092,93.214403 479.02726,93.840641 C 478.29097,94.461639 476.98085,94.770828 475.09689,94.770828 C 474.20077,94.770828 473.17625,94.550727 472.02858,94.115767 C 470.90188,93.701768 469.53411,93.067669 467.92528,92.21871 L 461.58429,64.776891 L 449.03332,64.776891 L 453.51656,84.116914 C 453.7681,85.243619 454.02226,86.459413 454.27381,87.772155 C 454.52535,89.082277 454.65374,90.080591 454.65374,90.769715 C 454.65374,92.171546 454.29739,93.18296 453.58468,93.806578 C 452.89556,94.448538 451.59592,94.768208 449.68838,94.770828 C 448.69793,94.770828 447.62101,94.537626 446.44976,94.081704 C 445.27589,93.620541 443.95529,92.999543 442.48271,92.21871 L 436.14172,64.776891 L 423.66149,64.776891 L 432.62535,103.491 L 445.10557,103.491 L 444.10464,99.21738 C 446.63318,100.89434 448.90755,102.20446 450.93038,103.14775 C 452.97417,104.08842 455.18041,104.56006 457.54911,104.56006 C 460.09861,104.56006 462.24983,103.98361 463.99491,102.83856 C 465.74262,101.71186 466.96103,100.04538 467.65016,97.836514 C 470.72894,100.06634 473.48806,101.7433 475.92489,102.87 C 478.35909,103.99671 480.71469,104.56006 482.99169,104.56006 C 486.39276,104.56006 488.9868,103.72158 490.78167,102.04463 C 492.57392,100.36505 493.47266,97.975387 493.47266,94.873017"
        id="path559"
        style="fill:#f46622;fill-opacity:1;fill-rule:evenodd;stroke:none" /><path
        d="M 405.45342,83.417309 C 403.24717,83.231272 401.17718,83.013792 399.24868,82.759628 C 397.31494,82.508084 395.67204,82.14125 394.31738,81.656505 C 392.91293,81.150798 391.84649,80.440712 391.1102,79.521006 C 390.37653,78.59868 390.00707,77.382886 390.00707,75.865765 C 390.00707,74.532061 390.49182,73.591393 391.45607,73.038521 C 392.4439,72.509232 393.86931,72.244587 395.72969,72.244587 C 396.9481,72.244587 398.24512,72.522333 399.62599,73.075205 C 401.02782,73.646418 402.33794,74.372226 403.55636,75.244767 L 405.45342,83.417309 z M 402.17811,69.247028 L 399.35087,67.418097 C 398.24774,66.708011 397.22323,66.144658 396.28256,65.73066 C 394.9934,65.20137 393.78809,64.800473 392.66138,64.522727 C 391.53468,64.244981 389.97563,64.111349 387.97377,64.111349 C 384.75611,64.111349 382.12538,65.004852 380.07897,66.79972 C 378.05614,68.615549 377.04735,70.968528 377.04735,73.863898 C 377.04735,76.924344 377.77053,79.507905 379.21953,81.622442 C 380.6659,83.760561 382.81188,85.4611 385.66533,86.724058 C 388.33012,87.918889 391.50061,88.780949 395.17944,89.310239 C 398.87922,89.839528 402.87771,90.229944 407.17754,90.481488 C 407.1985,90.620361 407.24566,90.837841 407.31379,91.136549 C 407.38191,91.458839 407.4186,91.815192 407.4186,92.205609 C 407.4186,93.838021 406.65873,94.975207 405.14161,95.619787 C 403.6271,96.285329 401.36059,96.61548 398.34993,96.6181 C 396.30352,96.6181 394.04225,96.272228 391.55826,95.583104 C 389.10047,94.893979 387.25058,94.320146 386.00858,93.861603 L 384.8714,93.861603 L 386.69771,103.03246 C 388.1467,103.39929 390.38701,103.81329 393.42125,104.27445 C 396.4555,104.733 399.47664,104.96358 402.4873,104.96358 C 408.55578,104.96358 413.00234,104.16964 415.82958,102.58178 C 418.68041,100.99653 420.1032,98.538739 420.1032,95.205788 C 420.1032,94.747246 420.05866,94.14721 419.96695,93.410921 C 419.8962,92.677253 419.79401,92.035293 419.65514,91.479801 L 413.58927,65.143725 L 401.2453,65.143725 L 402.17811,69.247028 z"
        id="path561"
        style="fill:#f46622;fill-opacity:1;fill-rule:evenodd;stroke:none" /><path
        d="M 357.22258,116.06293 L 381.88956,116.07603 L 379.5785,106.14793 L 361.31016,106.14793 C 359.38166,106.21868 356.98414,105.55051 355.53252,103.58533 C 354.10449,101.64373 353.19002,96.549974 353.19002,96.549974 L 375.66648,96.599758 L 373.39211,86.671653 L 351.53665,86.671653 L 346.46647,64.745448 L 333.229,64.745448 L 342.35007,104.35568 L 342.32125,104.0989 C 342.55707,105.11555 343.10994,109.45992 347.38356,112.97367 C 351.61787,116.45597 355.94652,115.85593 357.22258,116.06293"
        id="path563"
        style="fill:#f46622;fill-opacity:1;fill-rule:evenodd;stroke:none" /></g></svg>