<!-- Created with Inkscape (http://www.inkscape.org/) -->
<svg id="svg2" xmlns:rdf="http://www.w3.org/1999/02/22-rdf-syntax-ns#" xmlns="http://www.w3.org/2000/svg" height="319.52" width="532.53" version="1.1" xmlns:cc="http://creativecommons.org/ns#" xmlns:dc="http://purl.org/dc/elements/1.1/" viewBox="0 0 532.52673 319.518">
    <g id="layer1" transform="translate(-122.31 -195.46)">
        <g id="layer1-3" fill="#e30013" transform="matrix(.99999 0 0 .99999 490 318.57)">
            <rect id="rect4684-1" height="319.52" width="532.53" y="-123.11" x="-367.69"/>
            <g id="layer1-5" transform="matrix(1.065,0,0,1.065,1132.5,-355.34)"></g>
        </g>
        <g id="g4174" fill="#fff" transform="matrix(1.4706 0 0 1.4706 -421.98 -103.59)">
            <path id="S-2" d="m485.42 290.84 12.507-19.242c-69.272-38.484-101.98 45.219-39.446 55.802 30.787 4.8105 3.8484 30.787-25.015 5.7726l-12.507 21.166c71.196 47.143 117.38-47.143 44.257-53.878-15.394-0.9621-16.356-25.015 20.204-9.621z"/>
            <path id="P-7" fill-rule="evenodd" d="m507.55 262.94v101.02h28.863v-33.674h22.128c35.598 0 36.56-68.309 0-67.347h-50.992zm28.863 22.128h11.545c12.507 0 12.507 24.053 0 24.053h-11.545v-24.053z"/>
            <path id="D-5" fill-rule="evenodd" d="m592.22 262.94v101.02h44.257c56.764 0.96211 56.764-101.02 0.9621-101.02h-45.219zm27.901 24.053h4.8105c35.598 0 35.598 53.878 0 53.878h-4.8105v-53.878z"/>
        </g>
    </g>
</svg>