<?xml version="1.0" encoding="UTF-8" standalone="no"?>
<svg
        id="Ebene_1"
        x="0px"
        y="0px"
        viewBox="0 0 1200 834.98746"
        xml:space="preserve"
        width="1200"
        height="834.98743"
        version="1.1"
        sodipodi:docname="WerteUnion Logo.svg"
        inkscape:version="1.2.2 (732a01da63, 2022-12-09)"
        xmlns:inkscape="http://www.inkscape.org/namespaces/inkscape"
        xmlns:sodipodi="http://sodipodi.sourceforge.net/DTD/sodipodi-0.dtd"
        xmlns="http://www.w3.org/2000/svg"
        xmlns:svg="http://www.w3.org/2000/svg"><defs
     id="defs29" /><sodipodi:namedview
        id="namedview27"
        pagecolor="#ffffff"
        bordercolor="#000000"
        borderopacity="0.25"
        inkscape:showpageshadow="2"
        inkscape:pageopacity="0.0"
        inkscape:pagecheckerboard="0"
        inkscape:deskcolor="#d1d1d1"
        showgrid="false"
        inkscape:zoom="0.39557494"
        inkscape:cx="724.26226"
        inkscape:cy="653.47921"
        inkscape:window-width="1680"
        inkscape:window-height="988"
        inkscape:window-x="-8"
        inkscape:window-y="-8"
        inkscape:window-maximized="1"
        inkscape:current-layer="Ebene_1" /><style
        type="text/css"
        id="style2">	.st0{fill:#0A3C5B;}	.st1{fill:#F29100;}</style><path
        class="st0"
        d="m 784.04915,87.788571 c 13.37724,26.548669 14.2004,62.975889 -13.37724,110.928129 L 616.7308,465.23239 c -6.58571,11.31919 -20.99197,15.22946 -32.51696,8.64374 v 0 c -11.31921,-6.58571 -15.22948,-21.19777 -8.64376,-32.51696 L 734.45046,165.99392 C 752.76698,134.09438 749.67997,103.01804 719.4268,85.524734 689.17363,68.031432 660.56698,80.79125 642.25045,112.69081 L 483.37006,388.05603 c -6.58571,11.3192 -21.19777,15.22946 -32.51697,8.64375 -11.3192,-6.58572 -15.22946,-20.99197 -8.64375,-32.51697 L 596.15044,97.667148 c 26.96027,-46.717417 58.03659,-64.416529 87.05491,-67.091977 -21.60936,-6.174108 -44.45356,-9.466968 -68.12097,-9.466968 -137.47682,0 -249.02238,111.545557 -249.02238,249.022357 0,21.19777 2.67545,41.57232 7.61473,61.32947 2.26384,-4.93928 4.93929,-9.87857 8.02635,-15.02366 L 517.53346,82.849286 c 6.58572,-11.319194 20.99197,-15.229465 32.51698,-8.643746 v 0 c 11.31919,6.58571 15.22946,20.991963 8.64374,32.51697 L 417.7187,348.95334 c -18.31651,31.89957 -15.22946,62.97591 15.02367,80.46921 30.25313,17.49331 58.85983,4.73349 77.17636,-27.16607 l 108.66431,-188.10451 0.2058,0.2058 40.95488,23.66742 0.20584,0.2058 -108.66431,188.10451 c -18.31651,31.89956 -15.22946,62.97591 15.02367,80.46921 30.25313,17.49331 58.85983,4.73348 77.17639,-27.16607 L 770.87775,257.57653 c 6.5857,-11.31919 20.99194,-15.22946 32.51692,-8.64374 11.31923,6.58571 15.2295,20.99196 8.6438,32.51696 L 689.79105,494.86811 c -3.49859,5.9683 -6.99728,11.3192 -10.49597,16.46428 106.19466,-28.40089 184.60583,-125.3344 184.60583,-240.58442 0,-72.64867 -30.66466,-137.4768 -79.85176,-182.959399 z"
        id="path4"
        style="fill:#113d5c;fill-opacity:1;stroke-width:2.05804" /><g
        id="g485"
        style="fill:#113d5c;fill-opacity:1"
        transform="matrix(2.0580362,0,0,2.0580362,-700.67888,392.59921)"><polygon
       class="st0"
       points="370.1,203.9 355.2,104.2 370.3,104.2 377.5,167.5 377.7,167.5 388.9,104.2 399.8,104.2 411.5,169 411.7,169 418.6,104.2 433.7,104.2 418.9,203.9 405.4,203.9 394.5,139.2 394.2,139.2 383.5,203.9 "
       id="polygon6"
       style="fill:#113d5c;fill-opacity:1" /><polygon
        class="st0"
        points="481.5,146.9 481.5,160.3 456.9,160.3 456.9,189.6 485.2,189.6 485.2,203.9 442.7,203.9 442.7,104.2 485.2,104.2 485.2,117.7 456.9,117.7 456.9,146.9 "
        id="polygon8"
        style="fill:#113d5c;fill-opacity:1" /><path
        class="st0"
        d="m 494.4,203.9 v -99.6 h 22.9 c 16.8,0 25.2,9.7 25.2,29.2 0,5.9 -0.9,10.9 -2.7,15 -1.8,4.1 -5,7.4 -9.6,9.9 l 15.4,45.5 h -15.1 l -13.3,-42.5 h -8.5 v 42.5 z m 14.3,-86.2 v 31.1 h 8.1 c 2.5,0 4.5,-0.3 6,-1 1.5,-0.7 2.7,-1.7 3.5,-3 0.7,-1.3 1.3,-2.9 1.5,-4.8 0.3,-1.9 0.4,-4.1 0.4,-6.6 0,-2.5 -0.1,-4.7 -0.4,-6.6 -0.3,-1.9 -0.8,-3.6 -1.7,-5 -1.8,-2.6 -5.1,-3.9 -10.1,-3.9 h -7.3 z"
        id="path10"
        style="fill:#113d5c;fill-opacity:1" /><polygon
        class="st0"
        points="575.1,117.7 575.1,203.9 560.9,203.9 560.9,117.7 544.4,117.7 544.4,104.2 591.6,104.2 591.6,117.7 "
        id="polygon12"
        style="fill:#113d5c;fill-opacity:1" /><polygon
        class="st0"
        points="636.8,146.9 636.8,160.3 612.2,160.3 612.2,189.6 640.5,189.6 640.5,203.9 597.9,203.9 597.9,104.2 640.5,104.2 640.5,117.7 612.2,117.7 612.2,146.9 "
        id="polygon14"
        style="fill:#113d5c;fill-opacity:1" /></g><g
        id="g492"
        style="fill:#f39200;fill-opacity:1"
        transform="matrix(2.0580362,0,0,2.0580362,-700.67888,392.59921)"><path
       class="st1"
       d="m 695.9,104.2 v 77.2 c 0,3.3 -0.6,6.3 -1.7,9 -1.2,2.8 -2.8,5.2 -5,7.3 -2.1,2.2 -4.6,3.8 -7.4,5 -2.8,1.2 -5.8,1.8 -9,1.8 -3.2,0 -6.1,-0.6 -8.9,-1.8 -2.7,-1.2 -5.2,-2.9 -7.3,-5 -2.1,-2.1 -3.8,-4.6 -5,-7.3 -1.2,-2.7 -1.8,-5.8 -1.8,-9 V 104.2 H 664 V 180 c 0,3.5 0.8,6.2 2.5,7.8 1.7,1.7 3.8,2.5 6.3,2.5 2.5,0 4.6,-0.8 6.3,-2.5 1.7,-1.7 2.5,-4.3 2.5,-7.8 v -75.8 z"
       id="path16"
       style="fill:#f39200;fill-opacity:1" /><polygon
        class="st1"
        points="758.5,104.2 758.5,203.9 745.1,203.9 723.3,144 723,144 723,203.9 708.7,203.9 708.7,104.2 722.4,104.2 744,164.3 744.3,164.3 744.3,104.2 "
        id="polygon18"
        style="fill:#f39200;fill-opacity:1" /><polygon
        class="st1"
        points="786.1,104.2 786.1,203.9 771.8,203.9 771.8,104.2 "
        id="polygon20"
        style="fill:#f39200;fill-opacity:1" /><path
        class="st1"
        d="m 799.1,127.8 c 0,-4 0.7,-7.6 2.1,-10.6 1.4,-3.1 3.3,-5.6 5.6,-7.7 2.2,-2 4.8,-3.4 7.6,-4.5 2.8,-1 5.7,-1.5 8.6,-1.5 2.9,0 5.8,0.5 8.6,1.5 2.8,1 5.4,2.5 7.8,4.5 2.2,2.1 4.1,4.6 5.5,7.7 1.4,3.1 2.1,6.6 2.1,10.6 v 52.6 c 0,4.2 -0.7,7.8 -2.1,10.8 -1.4,3 -3.2,5.5 -5.5,7.4 -2.3,2.1 -4.9,3.6 -7.8,4.6 -2.8,1 -5.7,1.5 -8.6,1.5 -2.9,0 -5.8,-0.5 -8.6,-1.5 -2.8,-1 -5.4,-2.6 -7.6,-4.6 -2.3,-2 -4.2,-4.4 -5.6,-7.4 -1.4,-3 -2.1,-6.6 -2.1,-10.8 z m 14.3,52.5 c 0,3.5 1,6 2.9,7.6 1.9,1.6 4.2,2.4 6.8,2.4 2.6,0 4.9,-0.8 6.8,-2.4 1.9,-1.6 2.9,-4.2 2.9,-7.6 v -52.6 c 0,-3.5 -1,-6 -2.9,-7.6 -1.9,-1.6 -4.2,-2.5 -6.8,-2.5 -2.6,0 -4.9,0.8 -6.8,2.5 -1.9,1.6 -2.9,4.2 -2.9,7.6 z"
        id="path22"
        style="fill:#f39200;fill-opacity:1" /><polygon
        class="st1"
        points="908.8,104.2 908.8,203.9 895.4,203.9 873.5,144 873.2,144 873.2,203.9 859,203.9 859,104.2 872.7,104.2 894.2,164.3 894.5,164.3 894.5,104.2 "
        id="polygon24"
        style="fill:#f39200;fill-opacity:1" /></g></svg>
