<?xml version="1.0" encoding="UTF-8"?>
<!DOCTYPE svg PUBLIC "-//W3C//DTD SVG 1.1//EN" "http://www.w3.org/Graphics/SVG/1.1/DTD/svg11.dtd">
<!-- Creator: CorelDRAW -->
<svg xmlns="http://www.w3.org/2000/svg" xml:space="preserve" width="2572px" height="684px" style="shape-rendering:geometricPrecision; text-rendering:geometricPrecision; image-rendering:optimizeQuality; fill-rule:evenodd; clip-rule:evenodd"
     viewBox="0 0 2545.07 676.613"
     xmlns:xlink="http://www.w3.org/1999/xlink">
 <defs>
  <style type="text/css">
   <![CDATA[
    .fil0 {fill:#EB891B;fill-rule:nonzero}
   ]]>
  </style>
 </defs>
    <g id="Ebene_x0020_1">
  <metadata id="CorelCorpID_0Corel-Layer"/>
        <path class="fil0" d="M47.28 559.952c-9.58736,0 -17.0756,3.30877 -22.4636,9.93214 -5.41137,6.61987 -8.10771,15.866 -8.10771,27.7137 0,11.8255 2.69634,21.0494 8.10771,27.695 5.388,6.64208 12.8763,9.97539 22.4636,9.97539 9.56515,0 17.0312,-3.33331 22.4192,-9.97539 5.41137,-6.64558 8.1042,-15.8695 8.1042,-27.695 0,-11.8477 -2.69283,-21.0938 -8.05979,-27.7137 -5.38566,-6.62338 -12.8505,-9.93214 -22.4636,-9.93214zm0 -14.246c14.6352,0 26.1639,4.63414 34.5895,13.8802 8.4221,9.24608 12.646,21.9178 12.646,38.0117 0,16.1184 -4.22391,28.7901 -12.646,38.0362 -8.42561,9.24608 -19.9543,13.8802 -34.5895,13.8802 -14.6575,0 -26.2083,-4.61194 -34.6339,-13.8358 -8.4221,-9.24608 -12.646,-21.9143 -12.646,-38.0806 0,-16.1418 4.22391,-28.8123 12.646,-38.0561 8.42561,-9.22387 19.9765,-13.8358 34.6339,-13.8358zm4.68206 -25.7315l13.4443 0 0 15.0455 -13.4443 0 0 -15.0455zm-22.6728 0l13.4478 0 0 15.0455 -13.4478 0 0 -15.0455zm80.4109 28.2876l15.0455 0 0 55.7757 28.3542 -29.4283 18.6757 0 -26.0272 26.5484 26.5519 45.6168 -17.7862 0 -19.4739 -34.5206 -10.2945 10.4335 0 24.087 -15.0455 0 0 -98.5127zm102.073 37.1c-6.36742,0 -11.2762,2.19026 -14.7019,6.55325 -3.44668,4.38169 -5.15775,10.6381 -5.15775,18.8112 0,8.17316 1.71107,14.405 5.11451,18.7423 3.39993,4.31507 8.33094,6.48429 14.7451,6.48429 6.37092,0 11.2575,-2.16922 14.6352,-6.48429 3.40344,-4.33728 5.0923,-10.5691 5.0923,-18.7423 0,-8.17316 -1.68886,-14.4295 -5.0923,-18.8112 -3.37772,-4.36299 -8.26432,-6.55325 -14.6352,-6.55325zm-0.135576 -13.1042c11.074,0 19.7486,3.39993 26.0505,10.2278 6.32301,6.82557 9.47282,16.2329 9.47282,28.2408 0,11.9833 -3.12761,21.3907 -9.40737,28.1941 -6.25288,6.8022 -14.9286,10.2056 -25.9804,10.2056 -11.0927,0 -19.793,-3.37772 -26.047,-10.1589 -6.27859,-6.77999 -9.40737,-16.2096 -9.40737,-28.2408 0,-12.0558 3.12878,-21.4596 9.36062,-28.2665 6.25639,-6.8022 14.9087,-10.2021 25.9582,-10.2021zm48.5808 -23.9959l15.3891 0 0 98.5127 -15.3891 0 0 -98.5127zm65.2263 37.1c-6.36742,0 -11.2762,2.19026 -14.7019,6.55325 -3.44668,4.38169 -5.15775,10.6381 -5.15775,18.8112 0,8.17316 1.71107,14.405 5.11334,18.7423 3.39993,4.31507 8.33094,6.48429 14.7463,6.48429 6.36976,0 11.2564,-2.16922 14.6352,-6.48429 3.40227,-4.33728 5.09113,-10.5691 5.09113,-18.7423 0,-8.17316 -1.68886,-14.4295 -5.09113,-18.8112 -3.37889,-4.36299 -8.26549,-6.55325 -14.6352,-6.55325zm-0.135576 -13.1042c11.074,0 19.7486,3.39993 26.0494,10.2278 6.32301,6.82557 9.47399,16.2329 9.47399,28.2408 0,11.9833 -3.12878,21.3907 -9.40737,28.1941 -6.25405,6.8022 -14.9286,10.2056 -25.9804,10.2056 -11.0939,0 -19.7942,-3.37772 -26.047,-10.1589 -6.27976,-6.77999 -9.40737,-16.2096 -9.40737,-28.2408 0,-12.0558 3.12761,-21.4596 9.35945,-28.2665 6.25755,-6.8022 14.9099,-10.2021 25.9594,-10.2021zm61.5961 37.3957c0,8.17316 1.64094,14.405 4.9088,18.7423 3.28539,4.31507 7.98966,6.48429 14.1514,6.48429 6.32651,0 11.074,-2.03365 14.2028,-6.11847 3.15098,-4.08833 4.72531,-10.2278 4.72531,-18.4489 0,-8.10303 -1.66666,-14.2683 -4.95555,-18.4676 -3.30877,-4.1795 -8.12641,-6.27859 -14.5184,-6.27859 -5.75499,0 -10.2758,2.14702 -13.5623,6.41534 -3.3111,4.29287 -4.95205,10.1834 -4.95205,17.6717zm37.7136 27.6915c-2.37376,3.4946 -5.36579,6.11847 -9.04038,7.92421 -3.65238,1.80223 -7.85408,2.71387 -12.625,2.71387 -9.5897,0 -17.2615,-3.42447 -23.0129,-10.2723 -5.75148,-6.85012 -8.63014,-15.9349 -8.63014,-27.259 0,-11.642 2.87866,-20.9138 8.63014,-27.8306 5.75148,-6.91674 13.47,-10.3634 23.1497,-10.3634 4.72531,0 8.83585,0.933841 12.3737,2.78399 3.51681,1.85015 6.61987,4.70427 9.29166,8.58339l0 -9.01583 14.6341 0 0 69.1498c0,11.7823 -2.67062,20.2079 -8.01187,25.2523 -5.36579,5.06659 -14.1105,7.60163 -26.2329,7.60163 -9.74865,0 -17.3725,-1.93898 -22.875,-5.82161 -5.47916,-3.87912 -8.26432,-9.26829 -8.35548,-16.185l15.7304 0c0.22674,3.08086 1.64211,5.41137 4.29053,7.03011 2.62621,1.5977 6.36976,2.39596 11.2318,2.39596 6.85012,0 11.8279,-1.4142 14.862,-4.24611 3.05865,-2.83074 4.58973,-7.53151 4.58973,-14.0848l0 -8.35665zm31.3474 -62.7357l15.3868 0 0 72.1652 -15.3868 0 0 -72.1652zm0 -26.3685l15.3868 0 0 15.5212 -15.3868 0 0 -15.5212zm88.4671 47.2788l-14.8398 0c-0.274659,-3.56005 -1.68886,-6.27859 -4.26832,-8.15095 -2.604,-1.87119 -6.25639,-2.8062 -10.9829,-2.8062 -3.78796,0 -6.77999,0.707101 -8.99363,2.14702 -2.21597,1.4142 -3.3111,3.30877 -3.3111,5.68252 0,2.26039 0.889428,4.10937 2.67062,5.50253 1.78003,1.41654 4.95555,2.62621 9.49853,3.65238l9.17712 2.0804c8.85805,2.05118 14.9321,4.65635 18.2175,7.82837 3.26435,3.17319 4.9088,7.67176 4.9088,13.5144 0,7.62734 -2.73958,13.5623 -8.2164,17.8073 -5.50253,4.22391 -13.1743,6.34872 -23.0141,6.34872 -9.77319,0 -17.3269,-2.23818 -22.6717,-6.71103 -5.36345,-4.49857 -8.03407,-10.8473 -8.03407,-19.0426l14.9064 0c0.458155,4.4074 2.07689,7.69396 4.8866,9.86202 2.8062,2.16922 6.91674,3.24215 12.3059,3.24215 4.45065,0 7.98966,-0.864884 10.6159,-2.57829 2.60167,-1.71107 3.9025,-4.04158 3.9025,-6.98686 0,-2.19026 -0.773721,-3.90484 -2.3048,-5.18346 -1.53108,-1.27512 -4.52077,-2.46492 -8.92818,-3.58226l-10.8216 -2.74075c-8.2164,-2.00793 -14.0158,-4.58622 -17.3935,-7.76292 -3.40344,-3.17202 -5.0923,-7.46606 -5.0923,-12.8985 0,-6.91674 2.53505,-12.3971 7.57943,-16.4375 5.06659,-4.04041 11.9389,-6.04835 20.6392,-6.04835 9.06375,0 16.2552,2.0991 21.5742,6.32301 5.31904,4.2017 7.98966,9.86202 7.98966,16.9389zm76.7328 3.6781l-15.0455 0c-0.388029,-4.27066 -1.98456,-7.64838 -4.74751,-10.1367 -2.76529,-2.46843 -6.36976,-3.69913 -10.8461,-3.69913 -5.95718,0 -10.478,2.1213 -13.5366,6.39196 -3.05982,4.24611 -4.5909,10.5247 -4.5909,18.8334 0,8.10771 1.50653,14.3162 4.54298,18.5623 3.03645,4.26832 7.44385,6.39313 13.1953,6.39313 4.5909,0 8.31224,-1.30083 11.1442,-3.90484 2.82841,-2.62387 4.58622,-6.37092 5.25008,-11.2762l14.8398 0c-0.707101,8.97142 -3.94925,16.0015 -9.72644,21.0938 -5.77719,5.11334 -13.47,7.67059 -23.0573,7.67059 -9.83981,0 -17.6495,-3.42447 -23.401,-10.298 -5.75499,-6.87232 -8.63131,-16.185 -8.63131,-27.9662 0,-12.0523 2.96749,-21.4819 8.92701,-28.332 5.95718,-6.84778 14.1783,-10.2723 24.655,-10.2723 9.13271,0 16.4854,2.39596 22.0323,7.1914 5.54928,4.79426 8.56119,11.3674 8.99597,19.7486zm12.7863 -50.9358l15.3856 0 0 35.6379c2.33051,-3.60797 5.36696,-6.37092 9.13271,-8.26432 3.76575,-1.89456 8.05979,-2.83191 12.8774,-2.83191 7.98966,0 14.0848,1.94131 18.3309,5.84615 4.22391,3.9025 6.34872,9.54295 6.34872,16.8921 0,0.183496 0.0222065,0.981761 0.0666195,2.44388 0.0467505,1.43992 0.068957,2.76179 0.068957,3.97379l0 44.815 -15.3201 0 0 -44.5427c0,-5.70824 -1.09513,-9.83981 -3.3076,-12.4193 -2.21714,-2.55725 -5.73044,-3.83588 -10.5259,-3.83588 -5.31904,0 -9.5897,1.64562 -12.8318,4.9088 -3.21643,3.28656 -4.83985,7.67176 -4.83985,13.1521l0 42.737 -15.3856 0 0 -98.5127zm78.2381 55.113l35.0442 0 0 14.107 -35.0442 0 0 -14.107zm67.4645 -41.1404l0 70.0182 20.1343 0c9.77436,0 16.9646,-2.91957 21.5777,-8.76572 4.61194,-5.84381 6.91557,-14.8854 6.91557,-27.1433 0,-11.143 -2.32934,-19.613 -6.96349,-25.4124 -4.63414,-5.79823 -11.4375,-8.69676 -20.3867,-8.69676l-21.2773 0zm-16.1184 -13.9726l38.0584 0c14.4517,0 25.2955,4.08599 32.5313,12.2837 7.23815,8.17316 10.8695,20.3867 10.8695,36.6629 0,15.9361 -3.97496,28.1754 -11.8957,36.7365 -7.94525,8.56119 -19.3606,12.8295 -34.2447,12.8295l-35.3188 0 0 -98.5127zm160.61 66.5973l-50.3643 0c0.135576,6.73324 1.78003,11.9167 4.95322,15.5223 3.17553,3.63018 7.62734,5.43591 13.3788,5.43591 4.10937,0 7.55722,-1.02968 10.3669,-3.10657 2.8062,-2.07689 4.67856,-4.97542 5.6159,-8.67456l15.25 0c-1.36979,7.53151 -5.02217,13.6056 -10.9349,18.1953 -5.91628,4.58739 -12.9896,6.89453 -21.2329,6.89453 -10.3412,0 -18.4922,-3.42447 -24.4049,-10.298 -5.93848,-6.87232 -8.90597,-16.3229 -8.90597,-28.3764 0,-11.8945 2.9932,-21.2551 8.97259,-28.0351 5.95952,-6.78116 14.2238,-10.1589 24.7485,-10.1589 10.2068,0 18.2187,3.3076 24.0613,9.93098 5.84732,6.61987 8.77039,15.7304 8.77039,27.3257 0,1.02968 -0.0701258,2.64842 -0.20804,4.86439 -0.044413,0.227909 -0.0666195,0.388029 -0.0666195,0.480361zm-15.7783 -11.0962c-0.044413,-5.89056 -1.54978,-10.4558 -4.54298,-13.6757 -2.98853,-3.24215 -7.21243,-4.86205 -12.646,-4.86205 -5.18346,0 -9.24608,1.57549 -12.2393,4.74868 -2.98853,3.17202 -4.72531,7.76292 -5.22671,13.7891l34.655 0zm85.433 -19.9987c2.67062,-3.60797 5.82161,-6.32651 9.42958,-8.17316 3.60914,-1.85015 7.55722,-2.7875 11.8957,-2.7875 8.2164,0 14.2683,2.19377 18.0784,6.59766 3.83588,4.3852 5.75499,11.3709 5.75499,20.9583l0 46.4151 -15.1144 0 0 -45.3421c0,-5.31904 -0.957217,-9.17596 -2.89853,-11.642 -1.94131,-2.44271 -4.97776,-3.67459 -9.1105,-3.67459 -4.97542,0 -8.88026,1.52757 -11.6865,4.6096 -2.80971,3.08436 -4.2017,7.37372 -4.2017,12.9242l0 43.125 -15.1811 0 0 -48.2173c0,-3.83588 -1.07292,-6.87232 -3.19773,-9.1105 -2.1213,-2.21364 -5.04438,-3.33097 -8.76689,-3.33097 -4.93101,0 -8.81364,1.54978 -11.6198,4.67856 -2.83191,3.12878 -4.24611,7.44385 -4.24611,12.9686l0 43.0116 -15.1846 0 0 -72.1652 14.5219 0 0 9.29049c2.53505,-3.60797 5.6159,-6.37092 9.17712,-8.26432 3.58576,-1.89456 7.55722,-2.83191 11.8945,-2.83191 4.77323,0 8.78793,0.868391 12.0301,2.604 3.24215,1.73327 6.05185,4.52077 8.42561,8.35665zm93.0101 1.5977c-6.36742,0 -11.2762,2.19026 -14.7019,6.55325 -3.44668,4.38169 -5.15775,10.6381 -5.15775,18.8112 0,8.17316 1.71107,14.405 5.11451,18.7423 3.39993,4.31507 8.33094,6.48429 14.7451,6.48429 6.37092,0 11.2575,-2.16922 14.6352,-6.48429 3.40344,-4.33728 5.0923,-10.5691 5.0923,-18.7423 0,-8.17316 -1.68886,-14.4295 -5.0923,-18.8112 -3.37772,-4.36299 -8.26432,-6.55325 -14.6352,-6.55325zm-0.135576 -13.1042c11.074,0 19.7486,3.39993 26.0505,10.2278 6.32301,6.82557 9.47282,16.2329 9.47282,28.2408 0,11.9833 -3.12761,21.3907 -9.40737,28.1941 -6.25288,6.8022 -14.9286,10.2056 -25.9804,10.2056 -11.0927,0 -19.793,-3.37772 -26.047,-10.1589 -6.27859,-6.77999 -9.40737,-16.2096 -9.40737,-28.2408 0,-12.0558 3.12878,-21.4596 9.36062,-28.2665 6.25639,-6.8022 14.9087,-10.2021 25.9582,-10.2021zm49.7005 -23.9959l15.0455 0 0 55.7757 28.3553 -29.4283 18.6757 0 -26.0283 26.5484 26.5519 45.6168 -17.7851 0 -19.4751 -34.5206 -10.2945 10.4335 0 24.087 -15.0455 0 0 -98.5127zm110.817 24.7941l0 15.7748 -4.08483 0c-6.13951,0 -10.7772,1.55329 -13.858,4.65986 -3.10306,3.08086 -4.65635,7.73721 -4.65635,13.9468l0 39.337 -15.1846 0 0 -72.1652 14.3863 0 0 12.6939c2.0991,-4.81764 4.81647,-8.42561 8.14744,-10.7994 3.35902,-2.39596 7.28256,-3.58693 11.8501,-3.58693 0.044413,0 0.157783,0 0.389198,0 1.07292,0.0923322 2.07689,0.139083 3.01073,0.139083zm53.3096 37.5313c-3.21994,1.66666 -8.30873,2.9932 -15.3201,4.01937 -2.53154,0.410236 -4.4039,0.707101 -5.6159,0.937348 -3.56122,0.659182 -6.23184,1.9156 -7.96745,3.719 -1.73327,1.80574 -2.60167,4.1795 -2.60167,7.12478 0,3.28656 1.02617,5.84264 3.08086,7.64838 2.05585,1.8034 4.95672,2.71504 8.70027,2.71504 5.66032,0 10.3646,-1.59653 14.1081,-4.81647 3.74472,-3.22111 5.6159,-7.30593 5.6159,-12.3059l0 -9.04155zm0.662688 26.6221c-2.94528,3.81367 -6.48313,6.73324 -10.6381,8.81013 -4.13274,2.07806 -8.56119,3.10657 -13.2865,3.10657 -7.28373,0 -12.9686,-1.8934 -17.1013,-5.68486 -4.13158,-3.78913 -6.18743,-9.04155 -6.18743,-15.7058 0,-7.33048 2.21364,-12.8318 6.61987,-16.5064 4.4074,-3.6781 12.4193,-6.25755 24.0169,-7.71851 0.344785,-0.044413 0.868391,-0.114539 1.53108,-0.205702 9.67969,-1.25291 14.5184,-4.01821 14.5184,-8.28653 0,-3.49109 -1.2085,-6.04835 -3.60446,-7.715 -2.42168,-1.64445 -6.14302,-2.46609 -11.1664,-2.46609 -4.67856,0 -8.28653,0.981761 -10.7737,2.94528 -2.49063,1.96118 -3.74472,4.77089 -3.74472,8.42327l0 0.523606 -14.5207 0 0 -1.20967c0,-7.16919 2.64842,-12.8505 7.92304,-17.009 5.298,-4.17599 12.4894,-6.25288 21.6431,-6.25288 9.58736,0 16.801,1.80223 21.6876,5.388 4.8866,3.58343 7.32697,8.90246 7.32697,15.9326l0 35.8214c0,2.76529 0.322578,4.56752 0.959554,5.4102 0.663857,0.846184 1.80574,1.27863 3.44785,1.27863 0.32141,0 0.662688,-0.0222065 1.05072,-0.044413 0.366991,-0.0222065 1.02617,-0.068957 1.96352,-0.161289l0 11.1664c-1.392,0.363485 -2.73958,0.615938 -4.04041,0.798265 -1.32538,0.183496 -2.57946,0.274659 -3.79147,0.274659 -4.63414,0 -8.05862,-0.889428 -10.319,-2.67062 -2.26039,-1.78353 -3.42214,-4.52077 -3.51447,-8.24211zm34.2681 -82.4632l15.1811 0 0 19.8631 12.0336 0 0 11.3674 -12.0336 0 0 42.4658c0,2.62387 0.435948,4.38169 1.27863,5.25008 0.846184,0.868391 2.42051,1.30083 4.75102,1.30083 0.388029,0 0.911635,-0.0222065 1.55329,-0.0666195 0.659182,-0.0467505 1.13954,-0.068957 1.43641,-0.068957l3.01424 -0.136745 0 12.189c-0.365823,0.0479193 -0.868391,0.0911635 -1.53108,0.139083 -4.38169,0.432442 -7.44034,0.662688 -9.24608,0.662688 -6.00393,0 -10.25,-1.27863 -12.7161,-3.81367 -2.48713,-2.53505 -3.72134,-7.07686 -3.72134,-13.5834l0 -44.3382 -10.3202 0 0 -11.3674 10.3202 0 0 -19.8631zm38.8567 19.8631l15.3868 0 0 72.1652 -15.3868 0 0 -72.1652zm0 -26.3685l15.3868 0 0 15.5212 -15.3868 0 0 -15.5212zm88.4671 47.2788l-14.8398 0c-0.274659,-3.56005 -1.68886,-6.27859 -4.26832,-8.15095 -2.604,-1.87119 -6.25639,-2.8062 -10.9829,-2.8062 -3.78796,0 -6.77999,0.707101 -8.99363,2.14702 -2.21597,1.4142 -3.3111,3.30877 -3.3111,5.68252 0,2.26039 0.890597,4.10937 2.67062,5.50253 1.78003,1.41654 4.95555,2.62621 9.49853,3.65238l9.17712 2.0804c8.85805,2.05118 14.9321,4.65635 18.2175,7.82837 3.26435,3.17319 4.90997,7.67176 4.90997,13.5144 0,7.62734 -2.74075,13.5623 -8.21757,17.8073 -5.50253,4.22391 -13.1731,6.34872 -23.0129,6.34872 -9.77436,0 -17.3281,-2.23818 -22.6728,-6.71103 -5.36345,-4.49857 -8.03407,-10.8473 -8.03407,-19.0426l14.9064 0c0.458155,4.4074 2.07689,7.69396 4.8866,9.86202 2.8062,2.16922 6.91674,3.24215 12.3059,3.24215 4.45065,0 7.98966,-0.864884 10.6159,-2.57829 2.60167,-1.71107 3.9025,-4.04158 3.9025,-6.98686 0,-2.19026 -0.773721,-3.90484 -2.3048,-5.18346 -1.53108,-1.27512 -4.52077,-2.46492 -8.92818,-3.58226l-10.8216 -2.74075c-8.2164,-2.00793 -14.0158,-4.58622 -17.3935,-7.76292 -3.40344,-3.17202 -5.0923,-7.46606 -5.0923,-12.8985 0,-6.91674 2.53505,-12.3971 7.57943,-16.4375 5.06659,-4.04041 11.9389,-6.04835 20.6392,-6.04835 9.06375,0 16.2552,2.0991 21.5742,6.32301 5.31904,4.2017 7.98966,9.86202 7.98966,16.9389zm76.7339 3.6781l-15.0455 0c-0.389198,-4.27066 -1.98573,-7.64838 -4.74868,-10.1367 -2.76529,-2.46843 -6.36976,-3.69913 -10.8461,-3.69913 -5.95718,0 -10.478,2.1213 -13.5366,6.39196 -3.05982,4.24611 -4.5909,10.5247 -4.5909,18.8334 0,8.10771 1.50653,14.3162 4.54298,18.5623 3.03761,4.26832 7.44385,6.39313 13.1953,6.39313 4.5909,0 8.31224,-1.30083 11.1442,-3.90484 2.82841,-2.62387 4.58622,-6.37092 5.25008,-11.2762l14.8398 0c-0.707101,8.97142 -3.94925,16.0015 -9.72644,21.0938 -5.77719,5.11334 -13.47,7.67059 -23.0573,7.67059 -9.83981,0 -17.6495,-3.42447 -23.401,-10.298 -5.75499,-6.87232 -8.63131,-16.185 -8.63131,-27.9662 0,-12.0523 2.96749,-21.4819 8.92818,-28.332 5.95601,-6.84778 14.1771,-10.2723 24.6539,-10.2723 9.13271,0 16.4854,2.39596 22.0323,7.1914 5.54928,4.79426 8.56119,11.3674 8.99713,19.7486zm12.7851 -50.9358l15.3856 0 0 35.6379c2.33051,-3.60797 5.36696,-6.37092 9.13271,-8.26432 3.76692,-1.89456 8.05979,-2.83191 12.8774,-2.83191 7.98966,0 14.0859,1.94131 18.3309,5.84615 4.22391,3.9025 6.34872,9.54295 6.34872,16.8921 0,0.183496 0.0222065,0.981761 0.0666195,2.44388 0.0467505,1.43992 0.068957,2.76179 0.068957,3.97379l0 44.815 -15.3201 0 0 -44.5427c0,-5.70824 -1.09513,-9.83981 -3.3076,-12.4193 -2.21597,-2.55725 -5.73044,-3.83588 -10.5259,-3.83588 -5.31904,0 -9.5897,1.64562 -12.8318,4.9088 -3.21643,3.28656 -4.83985,7.67176 -4.83985,13.1521l0 42.737 -15.3856 0 0 -98.5127zm142.575 66.5973l-50.3643 0c0.135576,6.73324 1.78003,11.9167 4.95322,15.5223 3.17553,3.63018 7.62618,5.43591 13.3788,5.43591 4.10937,0 7.55722,-1.02968 10.3669,-3.10657 2.8062,-2.07689 4.67856,-4.97542 5.6159,-8.67456l15.25 0c-1.36979,7.53151 -5.02217,13.6056 -10.9349,18.1953 -5.91628,4.58739 -12.9908,6.89453 -21.2329,6.89453 -10.3412,0 -18.4922,-3.42447 -24.4049,-10.298 -5.93848,-6.87232 -8.90597,-16.3229 -8.90597,-28.3764 0,-11.8945 2.9932,-21.2551 8.97142,-28.0351 5.96069,-6.78116 14.225,-10.1589 24.7497,-10.1589 10.2068,0 18.2187,3.3076 24.0613,9.93098 5.84615,6.61987 8.77039,15.7304 8.77039,27.3257 0,1.02968 -0.0701258,2.64842 -0.209209,4.86439 -0.0432442,0.227909 -0.0654507,0.388029 -0.0654507,0.480361zm-15.7783 -11.0962c-0.044413,-5.89056 -1.54978,-10.4558 -4.54298,-13.6757 -2.98969,-3.24215 -7.2136,-4.86205 -12.646,-4.86205 -5.18346,0 -9.24608,1.57549 -12.2393,4.74868 -2.98969,3.17202 -4.72531,7.76292 -5.22788,13.7891l34.6561 0zm85.3676 -41.2538l0 31.0949 21.2762 0c6.61987,0 11.3686,-1.21201 14.1993,-3.60797 2.83191,-2.42168 4.24611,-6.34521 4.24611,-11.8477 0,-5.38916 -1.4142,-9.33841 -4.22391,-11.8735 -2.8062,-2.51284 -7.23464,-3.76575 -13.2865,-3.76575l-22.2112 0zm-16.3942 -14.2472l37.5313 0c6.05185,0 10.5504,0.274659 13.4712,0.846184 2.92308,0.546981 5.54928,1.48433 7.85408,2.76295 4.52077,2.41817 7.92304,5.86485 10.25,10.4078 2.30714,4.52077 3.47239,9.95669 3.47239,16.2797 0,5.22788 -0.959554,9.88423 -2.87866,14.0158 -1.91677,4.11054 -4.70076,7.53618 -8.35665,10.2512 -2.50933,1.84898 -5.43241,3.14982 -8.76689,3.95159 -3.35552,0.799434 -7.96745,1.20967 -13.858,1.20967l-22.3245 0 0 38.7877 -16.3942 0 0 -98.5127zm128.054 62.3254c-3.21994,1.66666 -8.30873,2.9932 -15.3201,4.01937 -2.53271,0.410236 -4.4039,0.707101 -5.6159,0.937348 -3.56122,0.659182 -6.23184,1.9156 -7.96862,3.719 -1.73327,1.80574 -2.6005,4.1795 -2.6005,7.12478 0,3.28656 1.025,5.84264 3.08086,7.64838 2.05468,1.8034 4.95555,2.71504 8.70027,2.71504 5.66032,0 10.3634,-1.59653 14.1081,-4.81647 3.74355,-3.22111 5.6159,-7.30593 5.6159,-12.3059l0 -9.04155zm0.662688 26.6221c-2.94528,3.81367 -6.48429,6.73324 -10.6392,8.81013 -4.13158,2.07806 -8.56119,3.10657 -13.2865,3.10657 -7.28256,0 -12.9686,-1.8934 -17.1002,-5.68486 -4.13274,-3.78913 -6.18743,-9.04155 -6.18743,-15.7058 0,-7.33048 2.21247,-12.8318 6.61987,-16.5064 4.40623,-3.6781 12.4181,-6.25755 24.0169,-7.71851 0.343616,-0.044413 0.868391,-0.114539 1.53108,-0.205702 9.67852,-1.25291 14.5184,-4.01821 14.5184,-8.28653 0,-3.49109 -1.20967,-6.04835 -3.60563,-7.715 -2.42051,-1.64445 -6.14302,-2.46609 -11.1652,-2.46609 -4.67856,0 -8.28653,0.981761 -10.7748,2.94528 -2.49063,1.96118 -3.74355,4.77089 -3.74355,8.42327l0 0.523606 -14.5219 0 0 -1.20967c0,-7.16919 2.64842,-12.8505 7.92421,-17.009 5.29683,-4.17599 12.4882,-6.25288 21.6431,-6.25288 9.58736,0 16.801,1.80223 21.6876,5.388 4.8866,3.58343 7.32697,8.90246 7.32697,15.9326l0 35.8214c0,2.76529 0.32141,4.56752 0.959554,5.4102 0.662688,0.846184 1.80574,1.27863 3.44668,1.27863 0.322578,0 0.663857,-0.0222065 1.05189,-0.044413 0.365823,-0.0222065 1.02617,-0.068957 1.96352,-0.161289l0 11.1664c-1.392,0.363485 -2.74075,0.615938 -4.04041,0.798265 -1.32655,0.183496 -2.57946,0.274659 -3.79147,0.274659 -4.63414,0 -8.05979,-0.889428 -10.3202,-2.67062 -2.26039,-1.78353 -3.42214,-4.52077 -3.5133,-8.24211zm70.1094 -64.1534l0 15.7748 -4.08483 0c-6.13951,0 -10.7772,1.55329 -13.858,4.65986 -3.10306,3.08086 -4.65635,7.73721 -4.65635,13.9468l0 39.337 -15.1846 0 0 -72.1652 14.3863 0 0 12.6939c2.0991,-4.81764 4.81647,-8.42561 8.14744,-10.7994 3.35902,-2.39596 7.28256,-3.58693 11.8501,-3.58693 0.044413,0 0.157783,0 0.389198,0 1.07292,0.0923322 2.07689,0.139083 3.01073,0.139083zm16.8956 -18.3098l15.1811 0 0 19.8631 12.0336 0 0 11.3674 -12.0336 0 0 42.4658c0,2.62387 0.435948,4.38169 1.27863,5.25008 0.846184,0.868391 2.42168,1.30083 4.75102,1.30083 0.388029,0 0.912804,-0.0222065 1.55329,-0.0666195 0.660351,-0.0467505 1.13954,-0.068957 1.43641,-0.068957l3.01424 -0.136745 0 12.189c-0.365823,0.0479193 -0.867222,0.0911635 -1.52991,0.139083 -4.38169,0.432442 -7.44151,0.662688 -9.24725,0.662688 -6.00393,0 -10.25,-1.27863 -12.715,-3.81367 -2.4883,-2.53505 -3.72251,-7.07686 -3.72251,-13.5834l0 -44.3382 -10.319 0 0 -11.3674 10.319 0 0 -19.8631zm100.066 60.113l-50.3643 0c0.135576,6.73324 1.78003,11.9167 4.95322,15.5223 3.17553,3.63018 7.62618,5.43591 13.3777,5.43591 4.11054,0 7.55839,-1.02968 10.3681,-3.10657 2.8062,-2.07689 4.67739,-4.97542 5.6159,-8.67456l15.25 0c-1.36979,7.53151 -5.02217,13.6056 -10.9349,18.1953 -5.91628,4.58739 -12.9908,6.89453 -21.2329,6.89453 -10.3424,0 -18.4933,-3.42447 -24.4049,-10.298 -5.93848,-6.87232 -8.90597,-16.3229 -8.90597,-28.3764 0,-11.8945 2.9932,-21.2551 8.97142,-28.0351 5.96069,-6.78116 14.225,-10.1589 24.7497,-10.1589 10.2056,0 18.2187,3.3076 24.0613,9.93098 5.84615,6.61987 8.76923,15.7304 8.76923,27.3257 0,1.02968 -0.068957,2.64842 -0.20804,4.86439 -0.044413,0.227909 -0.0654507,0.388029 -0.0654507,0.480361zm-15.7783 -11.0962c-0.044413,-5.89056 -1.54978,-10.4558 -4.54298,-13.6757 -2.98969,-3.24215 -7.2136,-4.86205 -12.646,-4.86205 -5.18346,0 -9.24608,1.57549 -12.2393,4.74868 -2.98969,3.17202 -4.72531,7.76292 -5.22788,13.7891l34.6561 0zm29.5229 -29.1536l15.3856 0 0 72.1652 -15.3856 0 0 -72.1652zm0 -26.3685l15.3856 0 0 15.5212 -15.3856 0 0 -15.5212z"/>
        <path class="fil0" d="M1480.64 490.934c113.015,0 189.233,-74.359 189.233,-176.201 0,-106.445 -92.6466,-168.208 -189.233,-168.208 -96.5865,0 -188.576,61.7633 -188.576,168.208 0,101.842 76.2185,176.201 188.576,176.201zm0 -285.93c42.7089,0 55.8505,60.4472 55.8505,109.728 0,51.9083 -11.829,117.614 -55.8505,117.614 -44.0226,0 -55.1948,-65.7055 -55.1948,-117.614 0,-49.2809 12.4859,-109.728 55.1948,-109.728zm-79.5051 -81.4779c22.9977,0 43.3658,-19.7112 43.3658,-42.7089 0,-23.6534 -20.368,-43.3646 -43.3658,-43.3646 -21.6805,0 -42.7089,21.0272 -42.7089,43.3646 0,22.3409 20.3715,42.7089 42.7089,42.7089zm159.009 0c22.9977,0 43.3658,-19.7112 43.3658,-42.7089 0,-23.6534 -20.368,-43.3646 -43.3658,-43.3646 -21.6841,0 -42.7078,21.0272 -42.7078,43.3646 0,22.3409 20.3669,42.7089 42.7078,42.7089zm341.013 93.3035c36.7962,0 55.1913,42.7089 55.1913,103.815 0,53.8776 -17.0815,103.815 -52.5639,103.815 -33.5096,0 -55.8505,-42.7089 -55.8505,-105.785 0,-64.393 21.6841,-101.846 53.2231,-101.846zm55.1913 266.109l131.412 0 0 -482.939 -131.412 0 0 187.919 -1.31369 0c-18.3975,-24.9671 -53.2208,-41.3952 -94.616,-41.3952 -110.385,0 -151.123,101.189 -151.123,168.208 0,85.4178 43.3646,176.201 146.524,176.201 47.9648,0 79.5039,-27.7067 100.529,-47.4179l0 39.4224zm396.211 -266.109c31.5367,0 52.5639,37.453 52.5639,101.846 0,63.0758 -21.6841,105.785 -55.1936,105.785 -35.479,0 -52.5639,-49.9377 -52.5639,-103.815 0,-61.1064 18.3975,-103.815 55.1936,-103.815zm-54.5368 -62.4201l-131.413 0 0 492.905 131.413 0 0 -200.513c22.3409,24.3114 53.88,44.1325 92.6466,44.1325 103.815,0 154.406,-96.0396 154.406,-173.575 0,-120.897 -70.3022,-170.835 -145.208,-170.835 -43.3646,0 -79.5039,19.7112 -101.845,44.0214l0 -36.1358z"/>
 </g>
</svg>